<mxfile host="app.diagrams.net" modified="2023-10-05T04:32:38.718Z" agent="Mozilla/5.0 (Windows NT 10.0; Win64; x64) AppleWebKit/537.36 (KHTML, like Gecko) Chrome/117.0.0.0 Safari/537.36" etag="9KzIxYCdPcbKBOXCj4HY" version="22.0.2" type="device">
  <diagram name="Page-1" id="eTLVjmlA0gTimV1xpl0i">
    <mxGraphModel dx="862" dy="397" grid="1" gridSize="10" guides="1" tooltips="1" connect="1" arrows="1" fold="1" page="1" pageScale="1" pageWidth="850" pageHeight="1100" math="0" shadow="0">
      <root>
        <mxCell id="0" />
        <mxCell id="1" parent="0" />
        <mxCell id="lIYE2rLKC7FHEJGWnlI1-2" value="&amp;lt;&amp;lt;Abstract&amp;gt;&amp;gt;&lt;br&gt;Pessoa" style="swimlane;fontStyle=1;align=center;verticalAlign=top;childLayout=stackLayout;horizontal=1;startSize=40;horizontalStack=0;resizeParent=1;resizeParentMax=0;resizeLast=0;collapsible=1;marginBottom=0;whiteSpace=wrap;html=1;" parent="1" vertex="1">
          <mxGeometry x="290" y="70" width="160" height="130" as="geometry" />
        </mxCell>
        <mxCell id="lIYE2rLKC7FHEJGWnlI1-3" value="- nome: String" style="text;strokeColor=none;fillColor=none;align=left;verticalAlign=top;spacingLeft=4;spacingRight=4;overflow=hidden;rotatable=0;points=[[0,0.5],[1,0.5]];portConstraint=eastwest;whiteSpace=wrap;html=1;" parent="lIYE2rLKC7FHEJGWnlI1-2" vertex="1">
          <mxGeometry y="40" width="160" height="26" as="geometry" />
        </mxCell>
        <mxCell id="lIYE2rLKC7FHEJGWnlI1-105" value="- cpf: String" style="text;strokeColor=none;fillColor=none;align=left;verticalAlign=top;spacingLeft=4;spacingRight=4;overflow=hidden;rotatable=0;points=[[0,0.5],[1,0.5]];portConstraint=eastwest;whiteSpace=wrap;html=1;" parent="lIYE2rLKC7FHEJGWnlI1-2" vertex="1">
          <mxGeometry y="66" width="160" height="26" as="geometry" />
        </mxCell>
        <mxCell id="lIYE2rLKC7FHEJGWnlI1-4" value="" style="line;strokeWidth=1;fillColor=none;align=left;verticalAlign=middle;spacingTop=-1;spacingLeft=3;spacingRight=3;rotatable=0;labelPosition=right;points=[];portConstraint=eastwest;strokeColor=inherit;" parent="lIYE2rLKC7FHEJGWnlI1-2" vertex="1">
          <mxGeometry y="92" width="160" height="12" as="geometry" />
        </mxCell>
        <mxCell id="lIYE2rLKC7FHEJGWnlI1-5" value="+ method(type): type" style="text;strokeColor=none;fillColor=none;align=left;verticalAlign=top;spacingLeft=4;spacingRight=4;overflow=hidden;rotatable=0;points=[[0,0.5],[1,0.5]];portConstraint=eastwest;whiteSpace=wrap;html=1;" parent="lIYE2rLKC7FHEJGWnlI1-2" vertex="1">
          <mxGeometry y="104" width="160" height="26" as="geometry" />
        </mxCell>
        <mxCell id="lIYE2rLKC7FHEJGWnlI1-6" value="Professor" style="swimlane;fontStyle=1;align=center;verticalAlign=top;childLayout=stackLayout;horizontal=1;startSize=26;horizontalStack=0;resizeParent=1;resizeParentMax=0;resizeLast=0;collapsible=1;marginBottom=0;whiteSpace=wrap;html=1;" parent="1" vertex="1">
          <mxGeometry x="110" y="370" width="160" height="140" as="geometry" />
        </mxCell>
        <mxCell id="lIYE2rLKC7FHEJGWnlI1-7" value="- id: int" style="text;strokeColor=none;fillColor=none;align=left;verticalAlign=top;spacingLeft=4;spacingRight=4;overflow=hidden;rotatable=0;points=[[0,0.5],[1,0.5]];portConstraint=eastwest;whiteSpace=wrap;html=1;" parent="lIYE2rLKC7FHEJGWnlI1-6" vertex="1">
          <mxGeometry y="26" width="160" height="26" as="geometry" />
        </mxCell>
        <mxCell id="lIYE2rLKC7FHEJGWnlI1-109" value="- salario: float" style="text;strokeColor=none;fillColor=none;align=left;verticalAlign=top;spacingLeft=4;spacingRight=4;overflow=hidden;rotatable=0;points=[[0,0.5],[1,0.5]];portConstraint=eastwest;whiteSpace=wrap;html=1;" parent="lIYE2rLKC7FHEJGWnlI1-6" vertex="1">
          <mxGeometry y="52" width="160" height="26" as="geometry" />
        </mxCell>
        <mxCell id="lIYE2rLKC7FHEJGWnlI1-8" value="" style="line;strokeWidth=1;fillColor=none;align=left;verticalAlign=middle;spacingTop=-1;spacingLeft=3;spacingRight=3;rotatable=0;labelPosition=right;points=[];portConstraint=eastwest;strokeColor=inherit;" parent="lIYE2rLKC7FHEJGWnlI1-6" vertex="1">
          <mxGeometry y="78" width="160" height="32" as="geometry" />
        </mxCell>
        <mxCell id="lIYE2rLKC7FHEJGWnlI1-9" value="+ method(type): type" style="text;strokeColor=none;fillColor=none;align=left;verticalAlign=top;spacingLeft=4;spacingRight=4;overflow=hidden;rotatable=0;points=[[0,0.5],[1,0.5]];portConstraint=eastwest;whiteSpace=wrap;html=1;" parent="lIYE2rLKC7FHEJGWnlI1-6" vertex="1">
          <mxGeometry y="110" width="160" height="30" as="geometry" />
        </mxCell>
        <mxCell id="lIYE2rLKC7FHEJGWnlI1-10" value="Profissional" style="swimlane;fontStyle=1;align=center;verticalAlign=top;childLayout=stackLayout;horizontal=1;startSize=26;horizontalStack=0;resizeParent=1;resizeParentMax=0;resizeLast=0;collapsible=1;marginBottom=0;whiteSpace=wrap;html=1;" parent="1" vertex="1">
          <mxGeometry x="550" y="300" width="160" height="126" as="geometry" />
        </mxCell>
        <mxCell id="lIYE2rLKC7FHEJGWnlI1-11" value="- id: int" style="text;strokeColor=none;fillColor=none;align=left;verticalAlign=top;spacingLeft=4;spacingRight=4;overflow=hidden;rotatable=0;points=[[0,0.5],[1,0.5]];portConstraint=eastwest;whiteSpace=wrap;html=1;" parent="lIYE2rLKC7FHEJGWnlI1-10" vertex="1">
          <mxGeometry y="26" width="160" height="26" as="geometry" />
        </mxCell>
        <mxCell id="lIYE2rLKC7FHEJGWnlI1-128" value="- salario: float" style="text;strokeColor=none;fillColor=none;align=left;verticalAlign=top;spacingLeft=4;spacingRight=4;overflow=hidden;rotatable=0;points=[[0,0.5],[1,0.5]];portConstraint=eastwest;whiteSpace=wrap;html=1;" parent="lIYE2rLKC7FHEJGWnlI1-10" vertex="1">
          <mxGeometry y="52" width="160" height="26" as="geometry" />
        </mxCell>
        <mxCell id="lIYE2rLKC7FHEJGWnlI1-12" value="" style="line;strokeWidth=1;fillColor=none;align=left;verticalAlign=middle;spacingTop=-1;spacingLeft=3;spacingRight=3;rotatable=0;labelPosition=right;points=[];portConstraint=eastwest;strokeColor=inherit;" parent="lIYE2rLKC7FHEJGWnlI1-10" vertex="1">
          <mxGeometry y="78" width="160" height="22" as="geometry" />
        </mxCell>
        <mxCell id="lIYE2rLKC7FHEJGWnlI1-13" value="+ method(type): type" style="text;strokeColor=none;fillColor=none;align=left;verticalAlign=top;spacingLeft=4;spacingRight=4;overflow=hidden;rotatable=0;points=[[0,0.5],[1,0.5]];portConstraint=eastwest;whiteSpace=wrap;html=1;" parent="lIYE2rLKC7FHEJGWnlI1-10" vertex="1">
          <mxGeometry y="100" width="160" height="26" as="geometry" />
        </mxCell>
        <mxCell id="lIYE2rLKC7FHEJGWnlI1-14" value="Universidade" style="swimlane;fontStyle=1;align=center;verticalAlign=top;childLayout=stackLayout;horizontal=1;startSize=26;horizontalStack=0;resizeParent=1;resizeParentMax=0;resizeLast=0;collapsible=1;marginBottom=0;whiteSpace=wrap;html=1;" parent="1" vertex="1">
          <mxGeometry x="1210" y="40" width="160" height="150" as="geometry" />
        </mxCell>
        <mxCell id="lIYE2rLKC7FHEJGWnlI1-15" value="- numSalas int" style="text;strokeColor=none;fillColor=none;align=left;verticalAlign=top;spacingLeft=4;spacingRight=4;overflow=hidden;rotatable=0;points=[[0,0.5],[1,0.5]];portConstraint=eastwest;whiteSpace=wrap;html=1;" parent="lIYE2rLKC7FHEJGWnlI1-14" vertex="1">
          <mxGeometry y="26" width="160" height="26" as="geometry" />
        </mxCell>
        <mxCell id="dNc6Di38Mwx5fTv3wWTV-5" value="- numProfessores: int" style="text;strokeColor=none;fillColor=none;align=left;verticalAlign=top;spacingLeft=4;spacingRight=4;overflow=hidden;rotatable=0;points=[[0,0.5],[1,0.5]];portConstraint=eastwest;whiteSpace=wrap;html=1;" vertex="1" parent="lIYE2rLKC7FHEJGWnlI1-14">
          <mxGeometry y="52" width="160" height="26" as="geometry" />
        </mxCell>
        <mxCell id="dNc6Di38Mwx5fTv3wWTV-8" value="- numEstudantes: int" style="text;strokeColor=none;fillColor=none;align=left;verticalAlign=top;spacingLeft=4;spacingRight=4;overflow=hidden;rotatable=0;points=[[0,0.5],[1,0.5]];portConstraint=eastwest;whiteSpace=wrap;html=1;" vertex="1" parent="lIYE2rLKC7FHEJGWnlI1-14">
          <mxGeometry y="78" width="160" height="26" as="geometry" />
        </mxCell>
        <mxCell id="lIYE2rLKC7FHEJGWnlI1-16" value="" style="line;strokeWidth=1;fillColor=none;align=left;verticalAlign=middle;spacingTop=-1;spacingLeft=3;spacingRight=3;rotatable=0;labelPosition=right;points=[];portConstraint=eastwest;strokeColor=inherit;" parent="lIYE2rLKC7FHEJGWnlI1-14" vertex="1">
          <mxGeometry y="104" width="160" height="20" as="geometry" />
        </mxCell>
        <mxCell id="lIYE2rLKC7FHEJGWnlI1-17" value="+ method(type): type" style="text;strokeColor=none;fillColor=none;align=left;verticalAlign=top;spacingLeft=4;spacingRight=4;overflow=hidden;rotatable=0;points=[[0,0.5],[1,0.5]];portConstraint=eastwest;whiteSpace=wrap;html=1;" parent="lIYE2rLKC7FHEJGWnlI1-14" vertex="1">
          <mxGeometry y="124" width="160" height="26" as="geometry" />
        </mxCell>
        <mxCell id="lIYE2rLKC7FHEJGWnlI1-18" value="Minicurso" style="swimlane;fontStyle=1;align=center;verticalAlign=top;childLayout=stackLayout;horizontal=1;startSize=26;horizontalStack=0;resizeParent=1;resizeParentMax=0;resizeLast=0;collapsible=1;marginBottom=0;whiteSpace=wrap;html=1;" parent="1" vertex="1">
          <mxGeometry x="820" y="390" width="160" height="254" as="geometry" />
        </mxCell>
        <mxCell id="lIYE2rLKC7FHEJGWnlI1-129" value="- data: Date" style="text;strokeColor=none;fillColor=none;align=left;verticalAlign=top;spacingLeft=4;spacingRight=4;overflow=hidden;rotatable=0;points=[[0,0.5],[1,0.5]];portConstraint=eastwest;whiteSpace=wrap;html=1;" parent="lIYE2rLKC7FHEJGWnlI1-18" vertex="1">
          <mxGeometry y="26" width="160" height="26" as="geometry" />
        </mxCell>
        <mxCell id="lIYE2rLKC7FHEJGWnlI1-130" value="-horaInicio: Time" style="text;strokeColor=none;fillColor=none;align=left;verticalAlign=top;spacingLeft=4;spacingRight=4;overflow=hidden;rotatable=0;points=[[0,0.5],[1,0.5]];portConstraint=eastwest;whiteSpace=wrap;html=1;" parent="lIYE2rLKC7FHEJGWnlI1-18" vertex="1">
          <mxGeometry y="52" width="160" height="26" as="geometry" />
        </mxCell>
        <mxCell id="lIYE2rLKC7FHEJGWnlI1-131" value="-horaFim: Time" style="text;strokeColor=none;fillColor=none;align=left;verticalAlign=top;spacingLeft=4;spacingRight=4;overflow=hidden;rotatable=0;points=[[0,0.5],[1,0.5]];portConstraint=eastwest;whiteSpace=wrap;html=1;" parent="lIYE2rLKC7FHEJGWnlI1-18" vertex="1">
          <mxGeometry y="78" width="160" height="26" as="geometry" />
        </mxCell>
        <mxCell id="lIYE2rLKC7FHEJGWnlI1-132" value="- ministrante: Profissional" style="text;strokeColor=none;fillColor=none;align=left;verticalAlign=top;spacingLeft=4;spacingRight=4;overflow=hidden;rotatable=0;points=[[0,0.5],[1,0.5]];portConstraint=eastwest;whiteSpace=wrap;html=1;" parent="lIYE2rLKC7FHEJGWnlI1-18" vertex="1">
          <mxGeometry y="104" width="160" height="26" as="geometry" />
        </mxCell>
        <mxCell id="lIYE2rLKC7FHEJGWnlI1-133" value="- participantes[]: Pessoa" style="text;strokeColor=none;fillColor=none;align=left;verticalAlign=top;spacingLeft=4;spacingRight=4;overflow=hidden;rotatable=0;points=[[0,0.5],[1,0.5]];portConstraint=eastwest;whiteSpace=wrap;html=1;" parent="lIYE2rLKC7FHEJGWnlI1-18" vertex="1">
          <mxGeometry y="130" width="160" height="26" as="geometry" />
        </mxCell>
        <mxCell id="dNc6Di38Mwx5fTv3wWTV-13" value="- local: Sala" style="text;strokeColor=none;fillColor=none;align=left;verticalAlign=top;spacingLeft=4;spacingRight=4;overflow=hidden;rotatable=0;points=[[0,0.5],[1,0.5]];portConstraint=eastwest;whiteSpace=wrap;html=1;" vertex="1" parent="lIYE2rLKC7FHEJGWnlI1-18">
          <mxGeometry y="156" width="160" height="26" as="geometry" />
        </mxCell>
        <mxCell id="lIYE2rLKC7FHEJGWnlI1-20" value="" style="line;strokeWidth=1;fillColor=none;align=left;verticalAlign=middle;spacingTop=-1;spacingLeft=3;spacingRight=3;rotatable=0;labelPosition=right;points=[];portConstraint=eastwest;strokeColor=inherit;" parent="lIYE2rLKC7FHEJGWnlI1-18" vertex="1">
          <mxGeometry y="182" width="160" height="20" as="geometry" />
        </mxCell>
        <mxCell id="lIYE2rLKC7FHEJGWnlI1-21" value="+matriculaParticipante: void" style="text;strokeColor=none;fillColor=none;align=left;verticalAlign=top;spacingLeft=4;spacingRight=4;overflow=hidden;rotatable=0;points=[[0,0.5],[1,0.5]];portConstraint=eastwest;whiteSpace=wrap;html=1;" parent="lIYE2rLKC7FHEJGWnlI1-18" vertex="1">
          <mxGeometry y="202" width="160" height="26" as="geometry" />
        </mxCell>
        <mxCell id="dNc6Di38Mwx5fTv3wWTV-10" value="+realizarMinicurso: void" style="text;strokeColor=none;fillColor=none;align=left;verticalAlign=top;spacingLeft=4;spacingRight=4;overflow=hidden;rotatable=0;points=[[0,0.5],[1,0.5]];portConstraint=eastwest;whiteSpace=wrap;html=1;" vertex="1" parent="lIYE2rLKC7FHEJGWnlI1-18">
          <mxGeometry y="228" width="160" height="26" as="geometry" />
        </mxCell>
        <mxCell id="lIYE2rLKC7FHEJGWnlI1-22" value="Sala" style="swimlane;fontStyle=1;align=center;verticalAlign=top;childLayout=stackLayout;horizontal=1;startSize=26;horizontalStack=0;resizeParent=1;resizeParentMax=0;resizeLast=0;collapsible=1;marginBottom=0;whiteSpace=wrap;html=1;" parent="1" vertex="1">
          <mxGeometry x="800" y="750" width="160" height="230" as="geometry" />
        </mxCell>
        <mxCell id="lIYE2rLKC7FHEJGWnlI1-23" value="-codigo: int" style="text;strokeColor=none;fillColor=none;align=left;verticalAlign=top;spacingLeft=4;spacingRight=4;overflow=hidden;rotatable=0;points=[[0,0.5],[1,0.5]];portConstraint=eastwest;whiteSpace=wrap;html=1;" parent="lIYE2rLKC7FHEJGWnlI1-22" vertex="1">
          <mxGeometry y="26" width="160" height="26" as="geometry" />
        </mxCell>
        <mxCell id="dNc6Di38Mwx5fTv3wWTV-1" value="-IdPredio: int" style="text;strokeColor=none;fillColor=none;align=left;verticalAlign=top;spacingLeft=4;spacingRight=4;overflow=hidden;rotatable=0;points=[[0,0.5],[1,0.5]];portConstraint=eastwest;whiteSpace=wrap;html=1;" vertex="1" parent="lIYE2rLKC7FHEJGWnlI1-22">
          <mxGeometry y="52" width="160" height="26" as="geometry" />
        </mxCell>
        <mxCell id="dNc6Di38Mwx5fTv3wWTV-15" value="-numSala: int" style="text;strokeColor=none;fillColor=none;align=left;verticalAlign=top;spacingLeft=4;spacingRight=4;overflow=hidden;rotatable=0;points=[[0,0.5],[1,0.5]];portConstraint=eastwest;whiteSpace=wrap;html=1;" vertex="1" parent="lIYE2rLKC7FHEJGWnlI1-22">
          <mxGeometry y="78" width="160" height="26" as="geometry" />
        </mxCell>
        <mxCell id="dNc6Di38Mwx5fTv3wWTV-3" value="-Curso: bool" style="text;strokeColor=none;fillColor=none;align=left;verticalAlign=top;spacingLeft=4;spacingRight=4;overflow=hidden;rotatable=0;points=[[0,0.5],[1,0.5]];portConstraint=eastwest;whiteSpace=wrap;html=1;" vertex="1" parent="lIYE2rLKC7FHEJGWnlI1-22">
          <mxGeometry y="104" width="160" height="26" as="geometry" />
        </mxCell>
        <mxCell id="dNc6Di38Mwx5fTv3wWTV-12" value="-sessaoTecnica: bool" style="text;strokeColor=none;fillColor=none;align=left;verticalAlign=top;spacingLeft=4;spacingRight=4;overflow=hidden;rotatable=0;points=[[0,0.5],[1,0.5]];portConstraint=eastwest;whiteSpace=wrap;html=1;" vertex="1" parent="lIYE2rLKC7FHEJGWnlI1-22">
          <mxGeometry y="130" width="160" height="26" as="geometry" />
        </mxCell>
        <mxCell id="lIYE2rLKC7FHEJGWnlI1-24" value="" style="line;strokeWidth=1;fillColor=none;align=left;verticalAlign=middle;spacingTop=-1;spacingLeft=3;spacingRight=3;rotatable=0;labelPosition=right;points=[];portConstraint=eastwest;strokeColor=inherit;" parent="lIYE2rLKC7FHEJGWnlI1-22" vertex="1">
          <mxGeometry y="156" width="160" height="20" as="geometry" />
        </mxCell>
        <mxCell id="lIYE2rLKC7FHEJGWnlI1-25" value="+ alocarEvento(): void" style="text;strokeColor=none;fillColor=none;align=left;verticalAlign=top;spacingLeft=4;spacingRight=4;overflow=hidden;rotatable=0;points=[[0,0.5],[1,0.5]];portConstraint=eastwest;whiteSpace=wrap;html=1;" parent="lIYE2rLKC7FHEJGWnlI1-22" vertex="1">
          <mxGeometry y="176" width="160" height="54" as="geometry" />
        </mxCell>
        <mxCell id="lIYE2rLKC7FHEJGWnlI1-26" value="Empresa" style="swimlane;fontStyle=1;align=center;verticalAlign=top;childLayout=stackLayout;horizontal=1;startSize=26;horizontalStack=0;resizeParent=1;resizeParentMax=0;resizeLast=0;collapsible=1;marginBottom=0;whiteSpace=wrap;html=1;" parent="1" vertex="1">
          <mxGeometry x="1080" y="310" width="160" height="112" as="geometry" />
        </mxCell>
        <mxCell id="lIYE2rLKC7FHEJGWnlI1-27" value="- ramo: String" style="text;strokeColor=none;fillColor=none;align=left;verticalAlign=top;spacingLeft=4;spacingRight=4;overflow=hidden;rotatable=0;points=[[0,0.5],[1,0.5]];portConstraint=eastwest;whiteSpace=wrap;html=1;" parent="lIYE2rLKC7FHEJGWnlI1-26" vertex="1">
          <mxGeometry y="26" width="160" height="26" as="geometry" />
        </mxCell>
        <mxCell id="dNc6Di38Mwx5fTv3wWTV-9" value="- numProfissionais: int" style="text;strokeColor=none;fillColor=none;align=left;verticalAlign=top;spacingLeft=4;spacingRight=4;overflow=hidden;rotatable=0;points=[[0,0.5],[1,0.5]];portConstraint=eastwest;whiteSpace=wrap;html=1;" vertex="1" parent="lIYE2rLKC7FHEJGWnlI1-26">
          <mxGeometry y="52" width="160" height="26" as="geometry" />
        </mxCell>
        <mxCell id="lIYE2rLKC7FHEJGWnlI1-28" value="" style="line;strokeWidth=1;fillColor=none;align=left;verticalAlign=middle;spacingTop=-1;spacingLeft=3;spacingRight=3;rotatable=0;labelPosition=right;points=[];portConstraint=eastwest;strokeColor=inherit;" parent="lIYE2rLKC7FHEJGWnlI1-26" vertex="1">
          <mxGeometry y="78" width="160" height="8" as="geometry" />
        </mxCell>
        <mxCell id="lIYE2rLKC7FHEJGWnlI1-29" value="+ method(type): type" style="text;strokeColor=none;fillColor=none;align=left;verticalAlign=top;spacingLeft=4;spacingRight=4;overflow=hidden;rotatable=0;points=[[0,0.5],[1,0.5]];portConstraint=eastwest;whiteSpace=wrap;html=1;" parent="lIYE2rLKC7FHEJGWnlI1-26" vertex="1">
          <mxGeometry y="86" width="160" height="26" as="geometry" />
        </mxCell>
        <mxCell id="lIYE2rLKC7FHEJGWnlI1-34" value="Estudante" style="swimlane;fontStyle=1;align=center;verticalAlign=top;childLayout=stackLayout;horizontal=1;startSize=26;horizontalStack=0;resizeParent=1;resizeParentMax=0;resizeLast=0;collapsible=1;marginBottom=0;whiteSpace=wrap;html=1;" parent="1" vertex="1">
          <mxGeometry x="10" y="80" width="160" height="202" as="geometry" />
        </mxCell>
        <mxCell id="lIYE2rLKC7FHEJGWnlI1-35" value="- matricula:&amp;nbsp; double" style="text;strokeColor=none;fillColor=none;align=left;verticalAlign=top;spacingLeft=4;spacingRight=4;overflow=hidden;rotatable=0;points=[[0,0.5],[1,0.5]];portConstraint=eastwest;whiteSpace=wrap;html=1;" parent="lIYE2rLKC7FHEJGWnlI1-34" vertex="1">
          <mxGeometry y="26" width="160" height="26" as="geometry" />
        </mxCell>
        <mxCell id="lIYE2rLKC7FHEJGWnlI1-107" value="- nota[]: Trabalho" style="text;strokeColor=none;fillColor=none;align=left;verticalAlign=top;spacingLeft=4;spacingRight=4;overflow=hidden;rotatable=0;points=[[0,0.5],[1,0.5]];portConstraint=eastwest;whiteSpace=wrap;html=1;" parent="lIYE2rLKC7FHEJGWnlI1-34" vertex="1">
          <mxGeometry y="52" width="160" height="26" as="geometry" />
        </mxCell>
        <mxCell id="lIYE2rLKC7FHEJGWnlI1-108" value="- aprovado: bool" style="text;strokeColor=none;fillColor=none;align=left;verticalAlign=top;spacingLeft=4;spacingRight=4;overflow=hidden;rotatable=0;points=[[0,0.5],[1,0.5]];portConstraint=eastwest;whiteSpace=wrap;html=1;" parent="lIYE2rLKC7FHEJGWnlI1-34" vertex="1">
          <mxGeometry y="78" width="160" height="26" as="geometry" />
        </mxCell>
        <mxCell id="lIYE2rLKC7FHEJGWnlI1-116" value="- notaFinal: float" style="text;strokeColor=none;fillColor=none;align=left;verticalAlign=top;spacingLeft=4;spacingRight=4;overflow=hidden;rotatable=0;points=[[0,0.5],[1,0.5]];portConstraint=eastwest;whiteSpace=wrap;html=1;" parent="lIYE2rLKC7FHEJGWnlI1-34" vertex="1">
          <mxGeometry y="104" width="160" height="26" as="geometry" />
        </mxCell>
        <mxCell id="lIYE2rLKC7FHEJGWnlI1-36" value="" style="line;strokeWidth=1;fillColor=none;align=left;verticalAlign=middle;spacingTop=-1;spacingLeft=3;spacingRight=3;rotatable=0;labelPosition=right;points=[];portConstraint=eastwest;strokeColor=inherit;" parent="lIYE2rLKC7FHEJGWnlI1-34" vertex="1">
          <mxGeometry y="130" width="160" height="46" as="geometry" />
        </mxCell>
        <mxCell id="lIYE2rLKC7FHEJGWnlI1-37" value="+ method(type): type" style="text;strokeColor=none;fillColor=none;align=left;verticalAlign=top;spacingLeft=4;spacingRight=4;overflow=hidden;rotatable=0;points=[[0,0.5],[1,0.5]];portConstraint=eastwest;whiteSpace=wrap;html=1;" parent="lIYE2rLKC7FHEJGWnlI1-34" vertex="1">
          <mxGeometry y="176" width="160" height="26" as="geometry" />
        </mxCell>
        <mxCell id="lIYE2rLKC7FHEJGWnlI1-38" value="&amp;lt;&amp;lt;Abstract&amp;gt;&amp;gt;&lt;br&gt;Instituição" style="swimlane;fontStyle=1;align=center;verticalAlign=top;childLayout=stackLayout;horizontal=1;startSize=40;horizontalStack=0;resizeParent=1;resizeParentMax=0;resizeLast=0;collapsible=1;marginBottom=0;whiteSpace=wrap;html=1;" parent="1" vertex="1">
          <mxGeometry x="780" y="20" width="160" height="202" as="geometry" />
        </mxCell>
        <mxCell id="lIYE2rLKC7FHEJGWnlI1-39" value="- cnpj : String" style="text;strokeColor=none;fillColor=none;align=left;verticalAlign=top;spacingLeft=4;spacingRight=4;overflow=hidden;rotatable=0;points=[[0,0.5],[1,0.5]];portConstraint=eastwest;whiteSpace=wrap;html=1;" parent="lIYE2rLKC7FHEJGWnlI1-38" vertex="1">
          <mxGeometry y="40" width="160" height="26" as="geometry" />
        </mxCell>
        <mxCell id="lIYE2rLKC7FHEJGWnlI1-103" value="- nomeInst : String" style="text;strokeColor=none;fillColor=none;align=left;verticalAlign=top;spacingLeft=4;spacingRight=4;overflow=hidden;rotatable=0;points=[[0,0.5],[1,0.5]];portConstraint=eastwest;whiteSpace=wrap;html=1;" parent="lIYE2rLKC7FHEJGWnlI1-38" vertex="1">
          <mxGeometry y="66" width="160" height="26" as="geometry" />
        </mxCell>
        <mxCell id="dNc6Di38Mwx5fTv3wWTV-4" value="- emaiI : String" style="text;strokeColor=none;fillColor=none;align=left;verticalAlign=top;spacingLeft=4;spacingRight=4;overflow=hidden;rotatable=0;points=[[0,0.5],[1,0.5]];portConstraint=eastwest;whiteSpace=wrap;html=1;" vertex="1" parent="lIYE2rLKC7FHEJGWnlI1-38">
          <mxGeometry y="92" width="160" height="26" as="geometry" />
        </mxCell>
        <mxCell id="lIYE2rLKC7FHEJGWnlI1-40" value="" style="line;strokeWidth=1;fillColor=none;align=left;verticalAlign=middle;spacingTop=-1;spacingLeft=3;spacingRight=3;rotatable=0;labelPosition=right;points=[];portConstraint=eastwest;strokeColor=inherit;" parent="lIYE2rLKC7FHEJGWnlI1-38" vertex="1">
          <mxGeometry y="118" width="160" height="58" as="geometry" />
        </mxCell>
        <mxCell id="lIYE2rLKC7FHEJGWnlI1-41" value="+ method(type): type" style="text;strokeColor=none;fillColor=none;align=left;verticalAlign=top;spacingLeft=4;spacingRight=4;overflow=hidden;rotatable=0;points=[[0,0.5],[1,0.5]];portConstraint=eastwest;whiteSpace=wrap;html=1;" parent="lIYE2rLKC7FHEJGWnlI1-38" vertex="1">
          <mxGeometry y="176" width="160" height="26" as="geometry" />
        </mxCell>
        <mxCell id="lIYE2rLKC7FHEJGWnlI1-50" value="Trabalho" style="swimlane;fontStyle=1;align=center;verticalAlign=top;childLayout=stackLayout;horizontal=1;startSize=26;horizontalStack=0;resizeParent=1;resizeParentMax=0;resizeLast=0;collapsible=1;marginBottom=0;whiteSpace=wrap;html=1;" parent="1" vertex="1">
          <mxGeometry x="30" y="710" width="160" height="286" as="geometry" />
        </mxCell>
        <mxCell id="lIYE2rLKC7FHEJGWnlI1-119" value="- id: int" style="text;strokeColor=none;fillColor=none;align=left;verticalAlign=top;spacingLeft=4;spacingRight=4;overflow=hidden;rotatable=0;points=[[0,0.5],[1,0.5]];portConstraint=eastwest;whiteSpace=wrap;html=1;" parent="lIYE2rLKC7FHEJGWnlI1-50" vertex="1">
          <mxGeometry y="26" width="160" height="26" as="geometry" />
        </mxCell>
        <mxCell id="lIYE2rLKC7FHEJGWnlI1-120" value="- titulo: String" style="text;strokeColor=none;fillColor=none;align=left;verticalAlign=top;spacingLeft=4;spacingRight=4;overflow=hidden;rotatable=0;points=[[0,0.5],[1,0.5]];portConstraint=eastwest;whiteSpace=wrap;html=1;" parent="lIYE2rLKC7FHEJGWnlI1-50" vertex="1">
          <mxGeometry y="52" width="160" height="26" as="geometry" />
        </mxCell>
        <mxCell id="lIYE2rLKC7FHEJGWnlI1-121" value="- resumo: String" style="text;strokeColor=none;fillColor=none;align=left;verticalAlign=top;spacingLeft=4;spacingRight=4;overflow=hidden;rotatable=0;points=[[0,0.5],[1,0.5]];portConstraint=eastwest;whiteSpace=wrap;html=1;" parent="lIYE2rLKC7FHEJGWnlI1-50" vertex="1">
          <mxGeometry y="78" width="160" height="26" as="geometry" />
        </mxCell>
        <mxCell id="lIYE2rLKC7FHEJGWnlI1-51" value="- orientador: Professor" style="text;strokeColor=none;fillColor=none;align=left;verticalAlign=top;spacingLeft=4;spacingRight=4;overflow=hidden;rotatable=0;points=[[0,0.5],[1,0.5]];portConstraint=eastwest;whiteSpace=wrap;html=1;" parent="lIYE2rLKC7FHEJGWnlI1-50" vertex="1">
          <mxGeometry y="104" width="160" height="26" as="geometry" />
        </mxCell>
        <mxCell id="lIYE2rLKC7FHEJGWnlI1-112" value="- participantes[]: Estudantes" style="text;strokeColor=none;fillColor=none;align=left;verticalAlign=top;spacingLeft=4;spacingRight=4;overflow=hidden;rotatable=0;points=[[0,0.5],[1,0.5]];portConstraint=eastwest;whiteSpace=wrap;html=1;" parent="lIYE2rLKC7FHEJGWnlI1-50" vertex="1">
          <mxGeometry y="130" width="160" height="26" as="geometry" />
        </mxCell>
        <mxCell id="lIYE2rLKC7FHEJGWnlI1-113" value="- numIntegrantes: int" style="text;strokeColor=none;fillColor=none;align=left;verticalAlign=top;spacingLeft=4;spacingRight=4;overflow=hidden;rotatable=0;points=[[0,0.5],[1,0.5]];portConstraint=eastwest;whiteSpace=wrap;html=1;" parent="lIYE2rLKC7FHEJGWnlI1-50" vertex="1">
          <mxGeometry y="156" width="160" height="26" as="geometry" />
        </mxCell>
        <mxCell id="lIYE2rLKC7FHEJGWnlI1-114" value="- notaTotal: Int" style="text;strokeColor=none;fillColor=none;align=left;verticalAlign=top;spacingLeft=4;spacingRight=4;overflow=hidden;rotatable=0;points=[[0,0.5],[1,0.5]];portConstraint=eastwest;whiteSpace=wrap;html=1;" parent="lIYE2rLKC7FHEJGWnlI1-50" vertex="1">
          <mxGeometry y="182" width="160" height="26" as="geometry" />
        </mxCell>
        <mxCell id="lIYE2rLKC7FHEJGWnlI1-115" value="- notaFinal: Int" style="text;strokeColor=none;fillColor=none;align=left;verticalAlign=top;spacingLeft=4;spacingRight=4;overflow=hidden;rotatable=0;points=[[0,0.5],[1,0.5]];portConstraint=eastwest;whiteSpace=wrap;html=1;" parent="lIYE2rLKC7FHEJGWnlI1-50" vertex="1">
          <mxGeometry y="208" width="160" height="26" as="geometry" />
        </mxCell>
        <mxCell id="lIYE2rLKC7FHEJGWnlI1-52" value="" style="line;strokeWidth=1;fillColor=none;align=left;verticalAlign=middle;spacingTop=-1;spacingLeft=3;spacingRight=3;rotatable=0;labelPosition=right;points=[];portConstraint=eastwest;strokeColor=inherit;" parent="lIYE2rLKC7FHEJGWnlI1-50" vertex="1">
          <mxGeometry y="234" width="160" height="26" as="geometry" />
        </mxCell>
        <mxCell id="lIYE2rLKC7FHEJGWnlI1-53" value="+ method(type): type" style="text;strokeColor=none;fillColor=none;align=left;verticalAlign=top;spacingLeft=4;spacingRight=4;overflow=hidden;rotatable=0;points=[[0,0.5],[1,0.5]];portConstraint=eastwest;whiteSpace=wrap;html=1;" parent="lIYE2rLKC7FHEJGWnlI1-50" vertex="1">
          <mxGeometry y="260" width="160" height="26" as="geometry" />
        </mxCell>
        <mxCell id="lIYE2rLKC7FHEJGWnlI1-54" value="Apresentação" style="swimlane;fontStyle=1;align=center;verticalAlign=top;childLayout=stackLayout;horizontal=1;startSize=26;horizontalStack=0;resizeParent=1;resizeParentMax=0;resizeLast=0;collapsible=1;marginBottom=0;whiteSpace=wrap;html=1;" parent="1" vertex="1">
          <mxGeometry x="260" y="750" width="160" height="182" as="geometry" />
        </mxCell>
        <mxCell id="lIYE2rLKC7FHEJGWnlI1-55" value="- titulo: Trabalho" style="text;strokeColor=none;fillColor=none;align=left;verticalAlign=top;spacingLeft=4;spacingRight=4;overflow=hidden;rotatable=0;points=[[0,0.5],[1,0.5]];portConstraint=eastwest;whiteSpace=wrap;html=1;" parent="lIYE2rLKC7FHEJGWnlI1-54" vertex="1">
          <mxGeometry y="26" width="160" height="26" as="geometry" />
        </mxCell>
        <mxCell id="lIYE2rLKC7FHEJGWnlI1-122" value="- horaApresentacao: time" style="text;strokeColor=none;fillColor=none;align=left;verticalAlign=top;spacingLeft=4;spacingRight=4;overflow=hidden;rotatable=0;points=[[0,0.5],[1,0.5]];portConstraint=eastwest;whiteSpace=wrap;html=1;" parent="lIYE2rLKC7FHEJGWnlI1-54" vertex="1">
          <mxGeometry y="52" width="160" height="26" as="geometry" />
        </mxCell>
        <mxCell id="dNc6Di38Mwx5fTv3wWTV-2" value="- IdApresentacao: int" style="text;strokeColor=none;fillColor=none;align=left;verticalAlign=top;spacingLeft=4;spacingRight=4;overflow=hidden;rotatable=0;points=[[0,0.5],[1,0.5]];portConstraint=eastwest;whiteSpace=wrap;html=1;" vertex="1" parent="lIYE2rLKC7FHEJGWnlI1-54">
          <mxGeometry y="78" width="160" height="26" as="geometry" />
        </mxCell>
        <mxCell id="lIYE2rLKC7FHEJGWnlI1-56" value="" style="line;strokeWidth=1;fillColor=none;align=left;verticalAlign=middle;spacingTop=-1;spacingLeft=3;spacingRight=3;rotatable=0;labelPosition=right;points=[];portConstraint=eastwest;strokeColor=inherit;" parent="lIYE2rLKC7FHEJGWnlI1-54" vertex="1">
          <mxGeometry y="104" width="160" height="52" as="geometry" />
        </mxCell>
        <mxCell id="lIYE2rLKC7FHEJGWnlI1-57" value="+ method(type): type" style="text;strokeColor=none;fillColor=none;align=left;verticalAlign=top;spacingLeft=4;spacingRight=4;overflow=hidden;rotatable=0;points=[[0,0.5],[1,0.5]];portConstraint=eastwest;whiteSpace=wrap;html=1;" parent="lIYE2rLKC7FHEJGWnlI1-54" vertex="1">
          <mxGeometry y="156" width="160" height="26" as="geometry" />
        </mxCell>
        <mxCell id="lIYE2rLKC7FHEJGWnlI1-58" value="SessaoTecnica" style="swimlane;fontStyle=1;align=center;verticalAlign=top;childLayout=stackLayout;horizontal=1;startSize=26;horizontalStack=0;resizeParent=1;resizeParentMax=0;resizeLast=0;collapsible=1;marginBottom=0;whiteSpace=wrap;html=1;" parent="1" vertex="1">
          <mxGeometry x="470" y="464" width="160" height="242" as="geometry" />
        </mxCell>
        <mxCell id="lIYE2rLKC7FHEJGWnlI1-59" value="- data: Date" style="text;strokeColor=none;fillColor=none;align=left;verticalAlign=top;spacingLeft=4;spacingRight=4;overflow=hidden;rotatable=0;points=[[0,0.5],[1,0.5]];portConstraint=eastwest;whiteSpace=wrap;html=1;" parent="lIYE2rLKC7FHEJGWnlI1-58" vertex="1">
          <mxGeometry y="26" width="160" height="26" as="geometry" />
        </mxCell>
        <mxCell id="lIYE2rLKC7FHEJGWnlI1-123" value="-horaInicio: Time" style="text;strokeColor=none;fillColor=none;align=left;verticalAlign=top;spacingLeft=4;spacingRight=4;overflow=hidden;rotatable=0;points=[[0,0.5],[1,0.5]];portConstraint=eastwest;whiteSpace=wrap;html=1;" parent="lIYE2rLKC7FHEJGWnlI1-58" vertex="1">
          <mxGeometry y="52" width="160" height="26" as="geometry" />
        </mxCell>
        <mxCell id="lIYE2rLKC7FHEJGWnlI1-124" value="-horaFim: Time" style="text;strokeColor=none;fillColor=none;align=left;verticalAlign=top;spacingLeft=4;spacingRight=4;overflow=hidden;rotatable=0;points=[[0,0.5],[1,0.5]];portConstraint=eastwest;whiteSpace=wrap;html=1;" parent="lIYE2rLKC7FHEJGWnlI1-58" vertex="1">
          <mxGeometry y="78" width="160" height="26" as="geometry" />
        </mxCell>
        <mxCell id="lIYE2rLKC7FHEJGWnlI1-125" value="- participantes: Pessoas" style="text;strokeColor=none;fillColor=none;align=left;verticalAlign=top;spacingLeft=4;spacingRight=4;overflow=hidden;rotatable=0;points=[[0,0.5],[1,0.5]];portConstraint=eastwest;whiteSpace=wrap;html=1;" parent="lIYE2rLKC7FHEJGWnlI1-58" vertex="1">
          <mxGeometry y="104" width="160" height="26" as="geometry" />
        </mxCell>
        <mxCell id="lIYE2rLKC7FHEJGWnlI1-126" value="- mediador: Professor" style="text;strokeColor=none;fillColor=none;align=left;verticalAlign=top;spacingLeft=4;spacingRight=4;overflow=hidden;rotatable=0;points=[[0,0.5],[1,0.5]];portConstraint=eastwest;whiteSpace=wrap;html=1;" parent="lIYE2rLKC7FHEJGWnlI1-58" vertex="1">
          <mxGeometry y="130" width="160" height="26" as="geometry" />
        </mxCell>
        <mxCell id="dNc6Di38Mwx5fTv3wWTV-14" value="- local: Sala" style="text;strokeColor=none;fillColor=none;align=left;verticalAlign=top;spacingLeft=4;spacingRight=4;overflow=hidden;rotatable=0;points=[[0,0.5],[1,0.5]];portConstraint=eastwest;whiteSpace=wrap;html=1;" vertex="1" parent="lIYE2rLKC7FHEJGWnlI1-58">
          <mxGeometry y="156" width="160" height="26" as="geometry" />
        </mxCell>
        <mxCell id="lIYE2rLKC7FHEJGWnlI1-60" value="" style="line;strokeWidth=1;fillColor=none;align=left;verticalAlign=middle;spacingTop=-1;spacingLeft=3;spacingRight=3;rotatable=0;labelPosition=right;points=[];portConstraint=eastwest;strokeColor=inherit;" parent="lIYE2rLKC7FHEJGWnlI1-58" vertex="1">
          <mxGeometry y="182" width="160" height="8" as="geometry" />
        </mxCell>
        <mxCell id="dNc6Di38Mwx5fTv3wWTV-11" value="+matriculaParticipante: void" style="text;strokeColor=none;fillColor=none;align=left;verticalAlign=top;spacingLeft=4;spacingRight=4;overflow=hidden;rotatable=0;points=[[0,0.5],[1,0.5]];portConstraint=eastwest;whiteSpace=wrap;html=1;" vertex="1" parent="lIYE2rLKC7FHEJGWnlI1-58">
          <mxGeometry y="190" width="160" height="26" as="geometry" />
        </mxCell>
        <mxCell id="lIYE2rLKC7FHEJGWnlI1-61" value="+realizarSessaoTec: void" style="text;strokeColor=none;fillColor=none;align=left;verticalAlign=top;spacingLeft=4;spacingRight=4;overflow=hidden;rotatable=0;points=[[0,0.5],[1,0.5]];portConstraint=eastwest;whiteSpace=wrap;html=1;" parent="lIYE2rLKC7FHEJGWnlI1-58" vertex="1">
          <mxGeometry y="216" width="160" height="26" as="geometry" />
        </mxCell>
        <mxCell id="lIYE2rLKC7FHEJGWnlI1-62" value="" style="html=1;verticalAlign=bottom;endArrow=block;curved=0;rounded=0;exitX=0.5;exitY=0;exitDx=0;exitDy=0;" parent="1" source="lIYE2rLKC7FHEJGWnlI1-6" target="lIYE2rLKC7FHEJGWnlI1-5" edge="1">
          <mxGeometry width="80" relative="1" as="geometry">
            <mxPoint x="370" y="250" as="sourcePoint" />
            <mxPoint x="450" y="250" as="targetPoint" />
          </mxGeometry>
        </mxCell>
        <mxCell id="lIYE2rLKC7FHEJGWnlI1-63" value="" style="html=1;verticalAlign=bottom;endArrow=block;curved=0;rounded=0;exitX=1;exitY=0.5;exitDx=0;exitDy=0;entryX=0;entryY=0.5;entryDx=0;entryDy=0;" parent="1" source="lIYE2rLKC7FHEJGWnlI1-35" target="lIYE2rLKC7FHEJGWnlI1-3" edge="1">
          <mxGeometry width="80" relative="1" as="geometry">
            <mxPoint x="100" y="66" as="sourcePoint" />
            <mxPoint x="190" y="-54" as="targetPoint" />
          </mxGeometry>
        </mxCell>
        <mxCell id="lIYE2rLKC7FHEJGWnlI1-64" value="" style="html=1;verticalAlign=bottom;endArrow=block;curved=0;rounded=0;exitX=0.5;exitY=0;exitDx=0;exitDy=0;entryX=1;entryY=0.5;entryDx=0;entryDy=0;" parent="1" source="lIYE2rLKC7FHEJGWnlI1-10" target="lIYE2rLKC7FHEJGWnlI1-5" edge="1">
          <mxGeometry width="80" relative="1" as="geometry">
            <mxPoint x="390" y="310" as="sourcePoint" />
            <mxPoint x="430" y="190" as="targetPoint" />
          </mxGeometry>
        </mxCell>
        <mxCell id="lIYE2rLKC7FHEJGWnlI1-68" value="" style="endArrow=none;html=1;rounded=0;exitX=1;exitY=0.5;exitDx=0;exitDy=0;entryX=0;entryY=0.5;entryDx=0;entryDy=0;" parent="1" source="lIYE2rLKC7FHEJGWnlI1-3" target="lIYE2rLKC7FHEJGWnlI1-39" edge="1">
          <mxGeometry relative="1" as="geometry">
            <mxPoint x="460" y="122.74000000000001" as="sourcePoint" />
            <mxPoint x="620" y="122.74000000000001" as="targetPoint" />
          </mxGeometry>
        </mxCell>
        <mxCell id="lIYE2rLKC7FHEJGWnlI1-69" value="" style="html=1;verticalAlign=bottom;endArrow=block;curved=0;rounded=0;exitX=0.5;exitY=0;exitDx=0;exitDy=0;entryX=1;entryY=0.5;entryDx=0;entryDy=0;" parent="1" source="lIYE2rLKC7FHEJGWnlI1-26" target="lIYE2rLKC7FHEJGWnlI1-41" edge="1">
          <mxGeometry width="80" relative="1" as="geometry">
            <mxPoint x="820" y="320" as="sourcePoint" />
            <mxPoint x="989" y="120" as="targetPoint" />
          </mxGeometry>
        </mxCell>
        <mxCell id="lIYE2rLKC7FHEJGWnlI1-70" value="" style="html=1;verticalAlign=bottom;endArrow=block;curved=0;rounded=0;exitX=0;exitY=0.5;exitDx=0;exitDy=0;entryX=1;entryY=0.25;entryDx=0;entryDy=0;" parent="1" source="lIYE2rLKC7FHEJGWnlI1-15" target="lIYE2rLKC7FHEJGWnlI1-38" edge="1">
          <mxGeometry width="80" relative="1" as="geometry">
            <mxPoint x="950" y="310" as="sourcePoint" />
            <mxPoint x="810" y="177" as="targetPoint" />
          </mxGeometry>
        </mxCell>
        <mxCell id="lIYE2rLKC7FHEJGWnlI1-71" value="" style="endArrow=none;html=1;rounded=0;exitX=1;exitY=0.5;exitDx=0;exitDy=0;entryX=0;entryY=0.5;entryDx=0;entryDy=0;" parent="1" source="lIYE2rLKC7FHEJGWnlI1-11" edge="1">
          <mxGeometry relative="1" as="geometry">
            <mxPoint x="460" y="133" as="sourcePoint" />
            <mxPoint x="820" y="429" as="targetPoint" />
          </mxGeometry>
        </mxCell>
        <mxCell id="lIYE2rLKC7FHEJGWnlI1-72" value="" style="endArrow=diamondThin;endFill=0;endSize=24;html=1;rounded=0;exitX=1;exitY=0.5;exitDx=0;exitDy=0;entryX=0.5;entryY=0;entryDx=0;entryDy=0;" parent="1" source="lIYE2rLKC7FHEJGWnlI1-2" target="lIYE2rLKC7FHEJGWnlI1-18" edge="1">
          <mxGeometry width="160" relative="1" as="geometry">
            <mxPoint x="550" y="210" as="sourcePoint" />
            <mxPoint x="710" y="210" as="targetPoint" />
            <Array as="points">
              <mxPoint x="700" y="240" />
            </Array>
          </mxGeometry>
        </mxCell>
        <mxCell id="lIYE2rLKC7FHEJGWnlI1-73" value="" style="endArrow=none;html=1;rounded=0;exitX=0.449;exitY=1.068;exitDx=0;exitDy=0;entryX=0.5;entryY=0;entryDx=0;entryDy=0;exitPerimeter=0;" parent="1" source="dNc6Di38Mwx5fTv3wWTV-10" target="lIYE2rLKC7FHEJGWnlI1-22" edge="1">
          <mxGeometry relative="1" as="geometry">
            <mxPoint x="900.96" y="650.0040000000001" as="sourcePoint" />
            <mxPoint x="830" y="530.95" as="targetPoint" />
          </mxGeometry>
        </mxCell>
        <mxCell id="lIYE2rLKC7FHEJGWnlI1-74" value="" style="endArrow=none;html=1;rounded=0;exitX=1;exitY=0.5;exitDx=0;exitDy=0;entryX=0;entryY=0.5;entryDx=0;entryDy=0;" parent="1" source="lIYE2rLKC7FHEJGWnlI1-59" target="lIYE2rLKC7FHEJGWnlI1-23" edge="1">
          <mxGeometry relative="1" as="geometry">
            <mxPoint x="911" y="488" as="sourcePoint" />
            <mxPoint x="890" y="580" as="targetPoint" />
          </mxGeometry>
        </mxCell>
        <mxCell id="lIYE2rLKC7FHEJGWnlI1-75" value="" style="endArrow=none;html=1;rounded=0;exitX=0;exitY=0.5;exitDx=0;exitDy=0;entryX=0.5;entryY=0;entryDx=0;entryDy=0;" parent="1" source="lIYE2rLKC7FHEJGWnlI1-58" target="lIYE2rLKC7FHEJGWnlI1-54" edge="1">
          <mxGeometry relative="1" as="geometry">
            <mxPoint x="465" y="887" as="sourcePoint" />
            <mxPoint x="805" y="739" as="targetPoint" />
          </mxGeometry>
        </mxCell>
        <mxCell id="lIYE2rLKC7FHEJGWnlI1-76" value="" style="endArrow=none;html=1;rounded=0;exitX=1;exitY=0.5;exitDx=0;exitDy=0;entryX=0;entryY=0.5;entryDx=0;entryDy=0;" parent="1" source="lIYE2rLKC7FHEJGWnlI1-51" target="lIYE2rLKC7FHEJGWnlI1-55" edge="1">
          <mxGeometry relative="1" as="geometry">
            <mxPoint x="480" y="547" as="sourcePoint" />
            <mxPoint x="400" y="640" as="targetPoint" />
          </mxGeometry>
        </mxCell>
        <mxCell id="lIYE2rLKC7FHEJGWnlI1-77" value="" style="endArrow=none;html=1;rounded=0;exitX=0.475;exitY=0.962;exitDx=0;exitDy=0;entryX=0.5;entryY=0;entryDx=0;entryDy=0;exitPerimeter=0;" parent="1" source="lIYE2rLKC7FHEJGWnlI1-9" target="lIYE2rLKC7FHEJGWnlI1-50" edge="1">
          <mxGeometry relative="1" as="geometry">
            <mxPoint x="200" y="629" as="sourcePoint" />
            <mxPoint x="320" y="679" as="targetPoint" />
          </mxGeometry>
        </mxCell>
        <mxCell id="lIYE2rLKC7FHEJGWnlI1-78" value="" style="endArrow=diamondThin;endFill=0;endSize=24;html=1;rounded=0;exitX=0.477;exitY=1.154;exitDx=0;exitDy=0;entryX=0.25;entryY=0;entryDx=0;entryDy=0;exitPerimeter=0;" parent="1" source="lIYE2rLKC7FHEJGWnlI1-37" target="lIYE2rLKC7FHEJGWnlI1-50" edge="1">
          <mxGeometry width="160" relative="1" as="geometry">
            <mxPoint x="460" y="167" as="sourcePoint" />
            <mxPoint x="910" y="400" as="targetPoint" />
            <Array as="points">
              <mxPoint x="30" y="430" />
            </Array>
          </mxGeometry>
        </mxCell>
        <mxCell id="lIYE2rLKC7FHEJGWnlI1-79" value="Autores" style="text;html=1;align=center;verticalAlign=middle;resizable=0;points=[];autosize=1;strokeColor=none;fillColor=none;" parent="1" vertex="1">
          <mxGeometry y="505" width="60" height="30" as="geometry" />
        </mxCell>
        <mxCell id="lIYE2rLKC7FHEJGWnlI1-81" value="Orientador" style="text;html=1;align=center;verticalAlign=middle;resizable=0;points=[];autosize=1;strokeColor=none;fillColor=none;" parent="1" vertex="1">
          <mxGeometry x="100" y="636" width="80" height="30" as="geometry" />
        </mxCell>
        <mxCell id="lIYE2rLKC7FHEJGWnlI1-83" value="" style="endArrow=none;html=1;rounded=0;exitX=1;exitY=0.5;exitDx=0;exitDy=0;entryX=0;entryY=0.5;entryDx=0;entryDy=0;" parent="1" source="lIYE2rLKC7FHEJGWnlI1-7" target="lIYE2rLKC7FHEJGWnlI1-59" edge="1">
          <mxGeometry relative="1" as="geometry">
            <mxPoint x="480" y="547" as="sourcePoint" />
            <mxPoint x="400" y="640" as="targetPoint" />
          </mxGeometry>
        </mxCell>
        <mxCell id="lIYE2rLKC7FHEJGWnlI1-84" value="Mediador" style="text;html=1;align=center;verticalAlign=middle;resizable=0;points=[];autosize=1;strokeColor=none;fillColor=none;" parent="1" vertex="1">
          <mxGeometry x="335" y="434" width="70" height="30" as="geometry" />
        </mxCell>
        <mxCell id="lIYE2rLKC7FHEJGWnlI1-85" value="" style="endArrow=diamondThin;endFill=0;endSize=24;html=1;rounded=0;entryX=0.5;entryY=0;entryDx=0;entryDy=0;" parent="1" source="lIYE2rLKC7FHEJGWnlI1-5" target="lIYE2rLKC7FHEJGWnlI1-58" edge="1">
          <mxGeometry width="160" relative="1" as="geometry">
            <mxPoint x="400" y="170" as="sourcePoint" />
            <mxPoint x="80" y="590" as="targetPoint" />
            <Array as="points" />
          </mxGeometry>
        </mxCell>
        <mxCell id="lIYE2rLKC7FHEJGWnlI1-86" value="Participantes" style="text;html=1;align=center;verticalAlign=middle;resizable=0;points=[];autosize=1;strokeColor=none;fillColor=none;" parent="1" vertex="1">
          <mxGeometry x="410" y="290" width="90" height="30" as="geometry" />
        </mxCell>
        <mxCell id="lIYE2rLKC7FHEJGWnlI1-87" value="Participantes" style="text;html=1;align=center;verticalAlign=middle;resizable=0;points=[];autosize=1;strokeColor=none;fillColor=none;" parent="1" vertex="1">
          <mxGeometry x="670" y="220" width="90" height="30" as="geometry" />
        </mxCell>
        <mxCell id="lIYE2rLKC7FHEJGWnlI1-88" value="Ministra" style="text;html=1;align=center;verticalAlign=middle;resizable=0;points=[];autosize=1;strokeColor=none;fillColor=none;" parent="1" vertex="1">
          <mxGeometry x="730" y="358" width="70" height="30" as="geometry" />
        </mxCell>
        <mxCell id="lIYE2rLKC7FHEJGWnlI1-89" value="1" style="text;html=1;align=center;verticalAlign=middle;resizable=0;points=[];autosize=1;strokeColor=none;fillColor=none;" parent="1" vertex="1">
          <mxGeometry x="185" y="758" width="30" height="30" as="geometry" />
        </mxCell>
        <mxCell id="lIYE2rLKC7FHEJGWnlI1-90" value="1" style="text;html=1;align=center;verticalAlign=middle;resizable=0;points=[];autosize=1;strokeColor=none;fillColor=none;" parent="1" vertex="1">
          <mxGeometry x="230" y="800" width="30" height="30" as="geometry" />
        </mxCell>
        <mxCell id="lIYE2rLKC7FHEJGWnlI1-91" value="1" style="text;html=1;align=center;verticalAlign=middle;resizable=0;points=[];autosize=1;strokeColor=none;fillColor=none;" parent="1" vertex="1">
          <mxGeometry x="440" y="650" width="30" height="30" as="geometry" />
        </mxCell>
        <mxCell id="lIYE2rLKC7FHEJGWnlI1-92" value="1...*" style="text;html=1;align=center;verticalAlign=middle;resizable=0;points=[];autosize=1;strokeColor=none;fillColor=none;" parent="1" vertex="1">
          <mxGeometry x="310" y="720" width="40" height="30" as="geometry" />
        </mxCell>
        <mxCell id="lIYE2rLKC7FHEJGWnlI1-93" value="1...*" style="text;html=1;align=center;verticalAlign=middle;resizable=0;points=[];autosize=1;strokeColor=none;fillColor=none;" parent="1" vertex="1">
          <mxGeometry x="620" y="540" width="40" height="30" as="geometry" />
        </mxCell>
        <mxCell id="lIYE2rLKC7FHEJGWnlI1-94" value="1" style="text;html=1;align=center;verticalAlign=middle;resizable=0;points=[];autosize=1;strokeColor=none;fillColor=none;" parent="1" vertex="1">
          <mxGeometry x="770" y="788" width="30" height="30" as="geometry" />
        </mxCell>
        <mxCell id="lIYE2rLKC7FHEJGWnlI1-95" value="1" style="text;html=1;align=center;verticalAlign=middle;resizable=0;points=[];autosize=1;strokeColor=none;fillColor=none;" parent="1" vertex="1">
          <mxGeometry x="850" y="720" width="30" height="30" as="geometry" />
        </mxCell>
        <mxCell id="lIYE2rLKC7FHEJGWnlI1-96" value="1...*" style="text;html=1;align=center;verticalAlign=middle;resizable=0;points=[];autosize=1;strokeColor=none;fillColor=none;" parent="1" vertex="1">
          <mxGeometry x="850" y="644" width="40" height="30" as="geometry" />
        </mxCell>
        <mxCell id="lIYE2rLKC7FHEJGWnlI1-97" value="1" style="text;html=1;align=center;verticalAlign=middle;resizable=0;points=[];autosize=1;strokeColor=none;fillColor=none;" parent="1" vertex="1">
          <mxGeometry x="790" y="426" width="30" height="30" as="geometry" />
        </mxCell>
        <mxCell id="lIYE2rLKC7FHEJGWnlI1-98" value="1" style="text;html=1;align=center;verticalAlign=middle;resizable=0;points=[];autosize=1;strokeColor=none;fillColor=none;" parent="1" vertex="1">
          <mxGeometry x="710" y="358" width="30" height="30" as="geometry" />
        </mxCell>
        <mxCell id="lIYE2rLKC7FHEJGWnlI1-99" value="1" style="text;html=1;align=center;verticalAlign=middle;resizable=0;points=[];autosize=1;strokeColor=none;fillColor=none;" parent="1" vertex="1">
          <mxGeometry x="610" y="136" width="30" height="30" as="geometry" />
        </mxCell>
        <mxCell id="lIYE2rLKC7FHEJGWnlI1-100" value="*" style="text;html=1;align=center;verticalAlign=middle;resizable=0;points=[];autosize=1;strokeColor=none;fillColor=none;" parent="1" vertex="1">
          <mxGeometry x="445" y="126" width="30" height="30" as="geometry" />
        </mxCell>
        <mxCell id="lIYE2rLKC7FHEJGWnlI1-101" value="*" style="text;html=1;align=center;verticalAlign=middle;resizable=0;points=[];autosize=1;strokeColor=none;fillColor=none;" parent="1" vertex="1">
          <mxGeometry x="440" y="500" width="30" height="30" as="geometry" />
        </mxCell>
        <mxCell id="lIYE2rLKC7FHEJGWnlI1-102" value="1" style="text;html=1;align=center;verticalAlign=middle;resizable=0;points=[];autosize=1;strokeColor=none;fillColor=none;" parent="1" vertex="1">
          <mxGeometry x="270" y="426" width="30" height="30" as="geometry" />
        </mxCell>
        <mxCell id="lIYE2rLKC7FHEJGWnlI1-110" value="1...*" style="text;html=1;align=center;verticalAlign=middle;resizable=0;points=[];autosize=1;strokeColor=none;fillColor=none;" parent="1" vertex="1">
          <mxGeometry x="120" y="680" width="40" height="30" as="geometry" />
        </mxCell>
        <mxCell id="lIYE2rLKC7FHEJGWnlI1-111" value="1" style="text;html=1;align=center;verticalAlign=middle;resizable=0;points=[];autosize=1;strokeColor=none;fillColor=none;" parent="1" vertex="1">
          <mxGeometry x="180" y="510" width="30" height="30" as="geometry" />
        </mxCell>
      </root>
    </mxGraphModel>
  </diagram>
</mxfile>
